<svg width="104" height="49" viewBox="0 0 104 49" fill="none" xmlns="http://www.w3.org/2000/svg">
<path d="M103.001 49V39.41L98.9605 38.7823L94.9202 38.9411L90.8799 37.6141L86.8397 32.1563L74.7189 29.5707L70.6786 29.577L66.6384 26.7484L62.5981 27.7593L58.5578 27.577L46.437 26.9789L42.3968 23.2625L38.3565 21.9308L34.3163 24.007L30.276 23.8435L18.1552 26.792L14.1149 27.3107L10.0747 24.0584L6.03442 15.322L1.99415 1V49H103.001Z" fill="url(#paint0_linear_260_20729)"/>
<path d="M102.007 39.41L97.9663 38.7823L93.9261 38.9411L89.8858 37.6141L85.8455 32.1563L73.7247 29.5707L69.6845 29.577L65.6442 26.7484L61.604 27.7593L57.5637 27.577L45.4429 26.9789L41.4026 23.2625L37.3624 21.9308L33.3221 24.007L29.2819 23.8435L17.1611 26.792L13.1208 27.3107L9.08054 24.0584L5.04028 15.322L1.00001 1" stroke="#EB5757" stroke-width="2"/>
<line x1="1.67261" y1="48.4375" x2="103.001" y2="48.4375" stroke="#EB5757" stroke-width="0.5" stroke-dasharray="3 3"/>
<defs>
<linearGradient id="paint0_linear_260_20729" x1="103.001" y1="1" x2="103.001" y2="49" gradientUnits="userSpaceOnUse">
<stop stop-color="#EB5757" stop-opacity="0.42"/>
<stop offset="1" stop-color="#EB5757" stop-opacity="0"/>
</linearGradient>
</defs>
</svg>
