<svg width="103" height="49" viewBox="0 0 103 49" fill="none" xmlns="http://www.w3.org/2000/svg">
<path d="M0.000244141 49V39.41L4.04051 38.7823L8.08077 38.9411L12.121 37.6141L16.1613 32.1563L28.2821 29.5707L32.3223 29.577L36.3626 26.7484L40.4029 27.7593L44.4431 27.577L56.5639 26.9789L60.6042 23.2625L64.6445 21.9308L68.6847 24.007L72.725 23.8435L84.8458 26.792L88.886 27.3107L92.9263 24.0584L96.9666 15.322L101.007 1V49H0.000244141Z" fill="url(#paint0_linear_260_20716)"/>
<path d="M0.994385 39.41L5.03465 38.7823L9.07491 38.9411L13.1152 37.6141L17.1554 32.1563L29.2762 29.5707L33.3165 29.577L37.3568 26.7484L41.397 27.7593L45.4373 27.577L57.5581 26.9789L61.5983 23.2625L65.6386 21.9308L69.6789 24.007L73.7191 23.8435L85.8399 26.792L89.8802 27.3107L93.9204 24.0584L97.9607 15.322L102.001 1" stroke="#27AE60" stroke-width="2"/>
<line y1="-0.25" x2="101.329" y2="-0.25" transform="matrix(-1 1.13241e-07 6.74912e-08 1 101.328 48.6875)" stroke="#27AE60" stroke-width="0.5" stroke-dasharray="3 3"/>
<defs>
<linearGradient id="paint0_linear_260_20716" x1="0.000244141" y1="1" x2="0.000244141" y2="49" gradientUnits="userSpaceOnUse">
<stop stop-color="#27AE60" stop-opacity="0.42"/>
<stop offset="1" stop-color="#27AE60" stop-opacity="0"/>
</linearGradient>
</defs>
</svg>
